<?xml version="1.0" standalone="no"?>
<!DOCTYPE svg PUBLIC "-//W3C//DTD SVG 20010904//EN"
 "http://www.w3.org/TR/2001/REC-SVG-20010904/DTD/svg10.dtd">
<svg version="1.0" xmlns="http://www.w3.org/2000/svg"
 width="235.000000pt" height="235.000000pt" viewBox="0 0 235.000000 235.000000"
 preserveAspectRatio="xMidYMid meet">
<metadata>
Created by potrace 1.14, written by Peter Selinger 2001-2017
</metadata>
<g transform="translate(0.000000,235.000000) scale(0.100000,-0.100000)"
fill="#000000" stroke="none">
<path d="M932 2298 c-18 -13 -44 -47 -58 -75 -29 -59 -29 -100 1 -212 11 -42
16 -89 13 -137 l-3 -73 30 17 c41 25 85 91 92 139 3 24 -3 71 -15 119 -27 107
-34 173 -23 212 11 38 6 39 -37 10z"/>
<path d="M1175 2300 c-83 -53 -103 -140 -65 -287 16 -64 21 -105 17 -151 l-5
-63 32 20 c17 11 44 40 60 65 35 56 37 116 7 226 -23 81 -27 160 -11 191 13
24 3 24 -35 -1z"/>
<path d="M1385 2276 c-41 -42 -65 -93 -65 -141 0 -11 10 -54 21 -95 15 -50 22
-102 21 -157 0 -92 5 -95 59 -36 64 68 73 128 38 252 -15 54 -20 95 -17 148 2
40 0 73 -5 73 -4 0 -27 -20 -52 -44z"/>
<path d="M524 1647 c-3 -8 -4 -268 -2 -578 l3 -564 27 -50 c33 -63 70 -98 133
-127 49 -23 56 -23 462 -26 353 -3 419 -1 466 13 68 20 133 75 167 141 l25 49
0 575 0 575 -638 3 c-528 2 -638 0 -643 -11z m1080 -143 c3 -9 6 -217 6 -464
0 -480 0 -481 -49 -465 -20 6 -21 14 -23 461 -2 251 1 462 5 470 11 19 53 18
61 -2z"/>
<path d="M1888 1414 c-5 -4 -8 -34 -8 -66 0 -53 2 -58 23 -59 80 -2 118 -18
138 -58 17 -34 21 -303 5 -350 -14 -43 -51 -70 -96 -72 -66 -3 -70 -6 -70 -59
0 -77 3 -80 68 -73 104 11 165 48 208 126 28 51 29 56 31 212 1 88 -3 183 -8
210 -23 108 -104 179 -219 190 -36 4 -68 3 -72 -1z"/>
<path d="M16 163 c17 -73 65 -120 135 -134 57 -11 1970 -11 2028 0 70 14 119
62 136 133 l7 28 -1156 0 -1156 0 6 -27z"/>
</g>
</svg>
